<svg width="1320" height="1140" viewBox="0 0 1320 1140" xmlns="http://www.w3.org/2000/svg" font-family="-apple-system, BlinkMacSystemFont, 'Segoe UI', 'Inter', sans-serif">

  <defs>
    <linearGradient id="appIconMini" x1="50%" y1="0%" x2="50%" y2="100%">
      <stop offset="0%" stop-color="#2D4438"/>
      <stop offset="100%" stop-color="#1A2622"/>
    </linearGradient>
    <pattern id="darkDotsMini" x="0" y="0" width="10" height="10" patternUnits="userSpaceOnUse">
      <circle cx="1" cy="1" r="0.5" fill="#FAF8F4" opacity="0.06"/>
    </pattern>
    <pattern id="forestDotsMini" x="0" y="0" width="11" height="11" patternUnits="userSpaceOnUse">
      <circle cx="1" cy="1" r="0.5" fill="#FAF8F4" opacity="0.05"/>
    </pattern>
    <radialGradient id="glowMini" cx="50%" cy="50%" r="50%">
      <stop offset="0%" stop-color="#B8C9BD" stop-opacity="0.20"/>
      <stop offset="100%" stop-color="#B8C9BD" stop-opacity="0"/>
    </radialGradient>
    <marker id="arrowMini" viewBox="0 0 10 10" refX="8" refY="5" markerWidth="8" markerHeight="8" orient="auto-start-reverse">
      <path d="M2 1L8 5L2 9" fill="none" stroke="#5C5650" stroke-width="1.5" stroke-linecap="round" stroke-linejoin="round"/>
    </marker>
    <marker id="arrowLoop" viewBox="0 0 10 10" refX="8" refY="5" markerWidth="8" markerHeight="8" orient="auto-start-reverse">
      <path d="M2 1L8 5L2 9" fill="none" stroke="#3D5A47" stroke-width="1.5" stroke-linecap="round" stroke-linejoin="round"/>
    </marker>
  </defs>

  <rect width="1320" height="1140" fill="#F4F1EB"/>

  <text x="60" y="60" font-size="24" font-weight="600" fill="#1F1B16">Applyze · User Flow Diagrams</text>
  <text x="60" y="84" font-size="13" font-weight="400" fill="#5C5650">Yeni kullanıcı yolculuğu ve günlük kullanım döngüsü</text>
  <line x1="60" y1="108" x2="1260" y2="108" stroke="#EBE7DF" stroke-width="0.5"/>

  <text x="60" y="150" font-size="11" font-weight="600" fill="#3D5A47" letter-spacing="1">FLOW 01</text>
  <text x="60" y="174" font-size="20" font-weight="600" fill="#1F1B16">Yeni kullanıcı yolculuğu</text>
  <text x="60" y="194" font-size="13" font-weight="400" fill="#5C5650">Splash ekranından ilk başvuruyu eklediği ana kadar geçen tek seferlik akış</text>

  <g transform="translate(60, 230)">
    <g transform="translate(0, 0)">
      <rect width="130" height="260" rx="18" fill="#1A2622"/>
      <rect width="130" height="260" rx="18" fill="url(#darkDotsMini)"/>
      <text x="10" y="14" font-size="6" font-weight="600" fill="#FAF8F4">9:41</text>
      <g transform="translate(65, 110)">
        <rect x="-15" y="-15" width="30" height="30" rx="7" fill="url(#appIconMini)"/>
        <path d="M 0 -10 L 1.5 0 L 0 10 L -1.5 0 Z" fill="#FAF8F4"/>
      </g>
      <text x="65" y="160" font-size="10" font-weight="300" font-style="italic" fill="#FAF8F4" text-anchor="middle">Applyze</text>
      <text x="65" y="174" font-size="6" font-weight="500" fill="#8A8278" text-anchor="middle" letter-spacing="0.5">KARİYER PUSULASI</text>
    </g>
    <text x="65" y="282" font-size="11" font-weight="600" fill="#1F1B16" text-anchor="middle">Splash</text>
    <text x="65" y="298" font-size="10" font-weight="400" fill="#8A8278" text-anchor="middle">Açılış</text>

    <line x1="138" y1="130" x2="178" y2="130" stroke="#5C5650" stroke-width="1.2" marker-end="url(#arrowMini)"/>

    <g transform="translate(186, 0)">
      <rect width="130" height="260" rx="18" fill="#FAF8F4" stroke="#EBE7DF" stroke-width="0.5"/>
      <text x="10" y="14" font-size="6" font-weight="600" fill="#1F1B16">9:41</text>
      <g transform="translate(65, 80)">
        <rect x="-12" y="-12" width="24" height="24" rx="6" fill="url(#appIconMini)"/>
        <path d="M 0 -8 L 1 0 L 0 8 L -1 0 Z" fill="#FAF8F4"/>
      </g>
      <text x="65" y="115" font-size="9" font-weight="600" fill="#1F1B16" text-anchor="middle">Applyze</text>
      <rect x="20" y="160" width="90" height="22" rx="6" fill="#1F1B16"/>
      <text x="65" y="175" font-size="7" font-weight="500" fill="#FAF8F4" text-anchor="middle">Apple ile giriş</text>
      <rect x="20" y="190" width="90" height="22" rx="6" fill="none" stroke="#D9D3C8" stroke-width="0.5"/>
      <text x="65" y="205" font-size="7" font-weight="500" fill="#1F1B16" text-anchor="middle">E-posta ile giriş</text>
    </g>
    <text x="251" y="282" font-size="11" font-weight="600" fill="#1F1B16" text-anchor="middle">Giriş</text>
    <text x="251" y="298" font-size="10" font-weight="400" fill="#8A8278" text-anchor="middle">Apple Sign In</text>

    <line x1="324" y1="130" x2="364" y2="130" stroke="#5C5650" stroke-width="1.2" marker-end="url(#arrowMini)"/>

    <g transform="translate(372, 0)">
      <rect width="130" height="260" rx="18" fill="#243530"/>
      <rect width="130" height="260" rx="18" fill="url(#forestDotsMini)"/>
      <text x="10" y="14" font-size="6" font-weight="600" fill="#FAF8F4">9:41</text>
      <g transform="translate(15, 30)">
        <rect width="8" height="2" rx="1" fill="#FAF8F4"/>
        <rect x="12" width="4" height="2" rx="1" fill="#FAF8F4" opacity="0.3"/>
        <rect x="20" width="4" height="2" rx="1" fill="#FAF8F4" opacity="0.3"/>
      </g>
      <text x="120" y="36" font-size="6" font-weight="500" fill="#B8B0A4" text-anchor="end">Atla</text>
      <g transform="translate(65, 100)">
        <circle r="22" fill="#3D5A47" opacity="0.15"/>
        <circle r="18" fill="none" stroke="#FAF8F4" stroke-width="0.4" opacity="0.20"/>
        <path d="M 0 -14 L 2 0 L 0 14 L -2 0 Z" fill="#FAF8F4"/>
      </g>
      <text x="14" y="160" font-size="9" font-weight="300" font-style="italic" fill="#FAF8F4">Sadece bir</text>
      <text x="14" y="172" font-size="9" font-weight="300" font-style="italic" fill="#FAF8F4">takipçi değil.</text>
      <text x="14" y="184" font-size="9" font-weight="300" font-style="italic" fill="#B8C9BD">Bir pusula.</text>
      <rect x="14" y="218" width="102" height="20" rx="5" fill="#FAF8F4"/>
      <text x="65" y="231" font-size="7" font-weight="500" fill="#1F1B16" text-anchor="middle">Devam et</text>
    </g>
    <text x="437" y="282" font-size="11" font-weight="600" fill="#1F1B16" text-anchor="middle">Onboarding</text>
    <text x="437" y="298" font-size="10" font-weight="400" fill="#8A8278" text-anchor="middle">3 ekran tanıtım</text>

    <line x1="510" y1="130" x2="550" y2="130" stroke="#5C5650" stroke-width="1.2" marker-end="url(#arrowMini)"/>

    <g transform="translate(558, 0)">
      <rect width="130" height="260" rx="18" fill="#FAF8F4" stroke="#EBE7DF" stroke-width="0.5"/>
      <text x="10" y="14" font-size="6" font-weight="600" fill="#1F1B16">9:41</text>
      <text x="10" y="40" font-size="9" font-weight="600" fill="#1F1B16">Başvurularım</text>
      <rect x="105" y="30" width="14" height="14" rx="3" fill="#F4F1EB"/>
      <line x1="112" y1="34" x2="112" y2="40" stroke="#5C5650" stroke-width="0.8"/>
      <line x1="109" y1="37" x2="115" y2="37" stroke="#5C5650" stroke-width="0.8"/>
      <g transform="translate(10, 50)">
        <rect width="22" height="12" rx="6" fill="#EBE7DF" opacity="0.6"/>
        <text x="11" y="9" font-size="6" fill="#8A8278" text-anchor="middle">Tümü</text>
        <rect x="26" width="22" height="12" rx="6" fill="#EBE7DF" opacity="0.6"/>
        <rect x="52" width="28" height="12" rx="6" fill="#EBE7DF" opacity="0.6"/>
      </g>
      <g transform="translate(65, 130)">
        <circle r="14" fill="#3D5A47" opacity="0.06"/>
        <circle r="11" fill="none" stroke="#3D5A47" stroke-width="0.5" opacity="0.4"/>
        <path d="M 0 -8 L 1 0 L 0 8 L -1 0 Z" fill="#3D5A47"/>
      </g>
      <text x="65" y="170" font-size="8" font-weight="300" font-style="italic" fill="#1F1B16" text-anchor="middle">Yolculuğun başlasın.</text>
      <rect x="14" y="210" width="102" height="20" rx="5" fill="#3D5A47"/>
      <text x="65" y="223" font-size="7" font-weight="500" fill="#FAF8F4" text-anchor="middle">İlk başvurunu ekle</text>
    </g>
    <text x="623" y="282" font-size="11" font-weight="600" fill="#1F1B16" text-anchor="middle">Empty State</text>
    <text x="623" y="298" font-size="10" font-weight="400" fill="#8A8278" text-anchor="middle">İlk açılış</text>

    <line x1="696" y1="130" x2="736" y2="130" stroke="#5C5650" stroke-width="1.2" marker-end="url(#arrowMini)"/>

    <g transform="translate(744, 0)">
      <rect width="130" height="260" rx="18" fill="#FAF8F4" stroke="#EBE7DF" stroke-width="0.5"/>
      <text x="10" y="14" font-size="6" font-weight="600" fill="#1F1B16">9:41</text>
      <line x1="10" y1="22" x2="14" y2="26" stroke="#1F1B16" stroke-width="0.8"/>
      <line x1="14" y1="22" x2="10" y2="26" stroke="#1F1B16" stroke-width="0.8"/>
      <text x="65" y="36" font-size="9" font-weight="600" fill="#1F1B16" text-anchor="middle">Yeni başvuru</text>
      <g transform="translate(14, 56)">
        <text font-size="6" fill="#8A8278">Pozisyon</text>
        <rect y="8" width="102" height="18" rx="4" fill="#FFF" stroke="#EBE7DF" stroke-width="0.4"/>
        <text x="6" y="20" font-size="7" fill="#5C5650">Süreç Tasarım Uzmanı</text>
      </g>
      <g transform="translate(14, 90)">
        <text font-size="6" fill="#8A8278">Şirket</text>
        <rect y="8" width="102" height="18" rx="4" fill="#FFF" stroke="#EBE7DF" stroke-width="0.4"/>
        <text x="6" y="20" font-size="7" fill="#5C5650">Trendyol</text>
      </g>
      <g transform="translate(14, 124)">
        <text font-size="6" fill="#8A8278">Aşama</text>
        <rect y="8" width="102" height="18" rx="4" fill="#FFF" stroke="#EBE7DF" stroke-width="0.4"/>
        <text x="6" y="20" font-size="7" fill="#5C5650">Başvuruldu</text>
      </g>
      <g transform="translate(14, 158)">
        <text font-size="6" fill="#8A8278">Notlar</text>
        <rect y="8" width="102" height="40" rx="4" fill="#FFF" stroke="#EBE7DF" stroke-width="0.4"/>
      </g>
      <rect x="14" y="218" width="102" height="22" rx="5" fill="#3D5A47"/>
      <text x="65" y="232" font-size="7" font-weight="500" fill="#FAF8F4" text-anchor="middle">Kaydet</text>
    </g>
    <text x="809" y="282" font-size="11" font-weight="600" fill="#1F1B16" text-anchor="middle">Add Form</text>
    <text x="809" y="298" font-size="10" font-weight="400" fill="#8A8278" text-anchor="middle">İlk başvuru</text>

    <line x1="882" y1="130" x2="922" y2="130" stroke="#5C5650" stroke-width="1.2" marker-end="url(#arrowMini)"/>

    <g transform="translate(930, 0)">
      <rect width="130" height="260" rx="18" fill="#FAF8F4" stroke="#EBE7DF" stroke-width="0.5"/>
      <text x="10" y="14" font-size="6" font-weight="600" fill="#1F1B16">9:41</text>
      <text x="10" y="34" font-size="10" font-weight="300" font-style="italic" fill="#1F1B16">Başvurularım</text>
      <text x="10" y="44" font-size="6" fill="#8A8278">1 toplam</text>
      <g transform="translate(10, 54)">
        <rect width="35" height="14" rx="7" fill="#3D5A47"/>
        <text x="17.5" y="10" font-size="6" fill="#FAF8F4" text-anchor="middle">Tümü 1</text>
        <rect x="40" width="30" height="14" rx="7" fill="#F4F1EB"/>
        <rect x="74" width="40" height="14" rx="7" fill="#F4F1EB"/>
      </g>
      <g transform="translate(10, 80)">
        <rect width="110" height="34" rx="6" fill="#FFF" stroke="#EBE7DF" stroke-width="0.4"/>
        <text x="6" y="11" font-size="6" font-weight="600" fill="#1F1B16">Süreç Tasarım Uzmanı</text>
        <text x="6" y="20" font-size="5" fill="#5C5650">Trendyol</text>
        <rect x="80" y="6" width="26" height="9" rx="2.5" fill="#DEE6EE"/>
        <text x="93" y="13" font-size="5" fill="#2F4358" text-anchor="middle">Başvuru</text>
        <text x="6" y="29" font-size="5" font-family="Menlo" fill="#8A8278">Bugün · 1. aşama</text>
      </g>
      <line x1="0" y1="220" x2="130" y2="220" stroke="#EBE7DF" stroke-width="0.4"/>
      <g transform="translate(28, 232)">
        <circle r="2" fill="none" stroke="#8A8278" stroke-width="0.6"/>
        <text y="14" font-size="5" fill="#8A8278" text-anchor="middle">Özet</text>
      </g>
      <g transform="translate(65, 232)">
        <rect x="-3" y="-2" width="6" height="6" fill="none" stroke="#3D5A47" stroke-width="0.8"/>
        <text y="14" font-size="5" font-weight="600" fill="#3D5A47" text-anchor="middle">Liste</text>
      </g>
      <g transform="translate(102, 232)">
        <circle r="2" fill="none" stroke="#8A8278" stroke-width="0.6"/>
        <text y="14" font-size="5" fill="#8A8278" text-anchor="middle">Profil</text>
      </g>
    </g>
    <text x="995" y="282" font-size="11" font-weight="600" fill="#1F1B16" text-anchor="middle">Dashboard</text>
    <text x="995" y="298" font-size="10" font-weight="400" fill="#8A8278" text-anchor="middle">Aktif kullanım</text>
  </g>

  <line x1="60" y1="600" x2="1260" y2="600" stroke="#EBE7DF" stroke-width="0.5"/>

  <text x="60" y="640" font-size="11" font-weight="600" fill="#3D5A47" letter-spacing="1">FLOW 02</text>
  <text x="60" y="664" font-size="20" font-weight="600" fill="#1F1B16">Günlük kullanım döngüsü</text>
  <text x="60" y="684" font-size="13" font-weight="400" fill="#5C5650">Mevcut kullanıcının dashboard'dan başvuru güncellemeye ve geri dönen ana döngüsü</text>

  <g transform="translate(60, 720)">
    <g transform="translate(0, 0)">
      <rect width="130" height="260" rx="18" fill="#FAF8F4" stroke="#EBE7DF" stroke-width="0.5"/>
      <text x="10" y="14" font-size="6" font-weight="600" fill="#1F1B16">9:41</text>
      <text x="10" y="34" font-size="10" font-weight="300" font-style="italic" fill="#1F1B16">Başvurularım</text>
      <text x="10" y="44" font-size="6" fill="#8A8278">23 toplam</text>
      <g transform="translate(10, 54)">
        <rect width="35" height="14" rx="7" fill="#3D5A47"/>
        <rect x="40" width="30" height="14" rx="7" fill="#F4F1EB"/>
        <rect x="74" width="40" height="14" rx="7" fill="#F4F1EB"/>
      </g>
      <g transform="translate(10, 80)">
        <rect width="110" height="22" rx="4" fill="#FFF" stroke="#EBE7DF" stroke-width="0.4"/>
        <text x="6" y="9" font-size="6" font-weight="600" fill="#1F1B16">Süreç Tasarım Uzm.</text>
        <text x="6" y="17" font-size="5" fill="#5C5650">Trendyol</text>
        <rect x="80" y="3" width="26" height="9" rx="2.5" fill="#EDE0CE"/>
      </g>
      <g transform="translate(10, 108)">
        <rect width="110" height="22" rx="4" fill="#FFF" stroke="#EBE7DF" stroke-width="0.4"/>
        <text x="6" y="9" font-size="6" font-weight="600" fill="#1F1B16">İş Analisti</text>
        <text x="6" y="17" font-size="5" fill="#5C5650">Garanti BBVA</text>
        <rect x="80" y="3" width="26" height="9" rx="2.5" fill="#DEE6EE"/>
      </g>
      <g transform="translate(10, 136)">
        <rect width="110" height="22" rx="4" fill="#FFF" stroke="#EBE7DF" stroke-width="0.4"/>
        <text x="6" y="9" font-size="6" font-weight="600" fill="#1F1B16">Operasyon Uzm.</text>
        <text x="6" y="17" font-size="5" fill="#5C5650">Getir</text>
        <rect x="80" y="3" width="26" height="9" rx="2.5" fill="#E8D8D8"/>
      </g>
      <g transform="translate(10, 164)">
        <rect width="110" height="22" rx="4" fill="#FFF" stroke="#EBE7DF" stroke-width="0.4"/>
        <text x="6" y="9" font-size="6" font-weight="600" fill="#1F1B16">Ürün Yöneticisi</text>
        <text x="6" y="17" font-size="5" fill="#5C5650">Hepsiburada</text>
        <rect x="80" y="3" width="26" height="9" rx="2.5" fill="#E2E8D6"/>
      </g>
      <line x1="0" y1="220" x2="130" y2="220" stroke="#EBE7DF" stroke-width="0.4"/>
      <g transform="translate(65, 232)">
        <rect x="-3" y="-2" width="6" height="6" fill="none" stroke="#3D5A47" stroke-width="0.8"/>
        <text y="14" font-size="5" font-weight="600" fill="#3D5A47" text-anchor="middle">Liste</text>
      </g>
    </g>
    <text x="65" y="282" font-size="11" font-weight="600" fill="#1F1B16" text-anchor="middle">Liste</text>
    <text x="65" y="298" font-size="10" font-weight="400" fill="#8A8278" text-anchor="middle">Tüm başvurular</text>

    <line x1="138" y1="130" x2="178" y2="130" stroke="#5C5650" stroke-width="1.2" marker-end="url(#arrowMini)"/>

    <g transform="translate(186, 0)">
      <rect width="130" height="260" rx="18" fill="#FAF8F4" stroke="#EBE7DF" stroke-width="0.5"/>
      <text x="10" y="14" font-size="6" font-weight="600" fill="#1F1B16">9:41</text>
      <line x1="10" y1="22" x2="14" y2="26" stroke="#1F1B16" stroke-width="0.8"/>
      <line x1="14" y1="22" x2="10" y2="26" stroke="#1F1B16" stroke-width="0.8"/>
      <text x="10" y="46" font-size="9" font-weight="600" fill="#1F1B16">Süreç Tasarım</text>
      <text x="10" y="56" font-size="9" font-weight="600" fill="#1F1B16">Uzmanı</text>
      <text x="10" y="66" font-size="6" fill="#5C5650">Trendyol · İstanbul</text>
      <rect x="10" y="72" width="32" height="12" rx="3" fill="#EDE0CE"/>
      <text x="26" y="80" font-size="6" fill="#5E4828" text-anchor="middle">Mülakat</text>
      <text x="10" y="100" font-size="6" font-weight="600" fill="#1F1B16">Süreç</text>
      <g transform="translate(15, 110)">
        <line x1="0" y1="4" x2="100" y2="4" stroke="#EBE7DF" stroke-width="0.6"/>
        <line x1="0" y1="4" x2="50" y2="4" stroke="#3D5A47" stroke-width="0.8"/>
        <circle cx="0" cy="4" r="3" fill="#3D5A47"/>
        <circle cx="25" cy="4" r="3" fill="#3D5A47"/>
        <circle cx="50" cy="4" r="4" fill="#FAF8F4" stroke="#3D5A47" stroke-width="1"/>
        <circle cx="50" cy="4" r="1.5" fill="#3D5A47"/>
        <circle cx="100" cy="4" r="2.5" fill="#FAF8F4" stroke="#D9D3C8" stroke-width="0.5"/>
      </g>
      <text x="10" y="138" font-size="6" font-weight="600" fill="#1F1B16">Notlar</text>
      <rect x="10" y="142" width="110" height="40" rx="4" fill="#FFF" stroke="#EBE7DF" stroke-width="0.4"/>
      <text x="14" y="152" font-size="5" fill="#8A8278">14 Nis</text>
      <text x="14" y="162" font-size="6" fill="#1F1B16">İK görüşmesi pozitif geçti.</text>
      <text x="14" y="171" font-size="6" fill="#1F1B16">Teknik mülakat 18 Nisan'a</text>
      <rect x="10" y="220" width="60" height="18" rx="4" fill="#3D5A47"/>
      <text x="40" y="232" font-size="6" font-weight="500" fill="#FAF8F4" text-anchor="middle">Aşama güncelle</text>
      <rect x="74" y="220" width="46" height="18" rx="4" fill="none" stroke="#D9D3C8" stroke-width="0.5"/>
      <text x="97" y="232" font-size="6" font-weight="500" fill="#1F1B16" text-anchor="middle">Not ekle</text>
    </g>
    <text x="251" y="282" font-size="11" font-weight="600" fill="#1F1B16" text-anchor="middle">Detail</text>
    <text x="251" y="298" font-size="10" font-weight="400" fill="#8A8278" text-anchor="middle">Başvuru detayı</text>

    <line x1="324" y1="130" x2="364" y2="130" stroke="#5C5650" stroke-width="1.2" marker-end="url(#arrowMini)"/>

    <g transform="translate(372, 0)">
      <rect width="130" height="260" rx="18" fill="#FAF8F4" stroke="#EBE7DF" stroke-width="0.5"/>
      <rect width="130" height="160" rx="18" fill="#1F1B16" opacity="0.40"/>
      <rect y="120" width="130" height="140" rx="18" fill="#FAF8F4"/>
      <rect x="55" y="128" width="20" height="3" rx="1.5" fill="#D9D3C8"/>
      <text x="65" y="148" font-size="9" font-weight="600" fill="#1F1B16" text-anchor="middle">Aşama güncelle</text>

      <g transform="translate(14, 162)">
        <rect width="102" height="18" rx="4" fill="#FAF8F4" stroke="#EBE7DF" stroke-width="0.4"/>
        <circle cx="9" cy="9" r="3" fill="#3D5A47"/>
        <text x="18" y="12" font-size="6" fill="#1F1B16">Mülakat</text>
        <rect x="80" y="3" width="18" height="12" rx="2" fill="#EDE0CE"/>
      </g>
      <g transform="translate(14, 184)">
        <rect width="102" height="18" rx="4" fill="#FFF" stroke="#EBE7DF" stroke-width="0.4"/>
        <circle cx="9" cy="9" r="3" fill="none" stroke="#D9D3C8" stroke-width="0.6"/>
        <text x="18" y="12" font-size="6" fill="#5C5650">Teklif aldı</text>
      </g>
      <g transform="translate(14, 206)">
        <rect width="102" height="18" rx="4" fill="#FFF" stroke="#EBE7DF" stroke-width="0.4"/>
        <circle cx="9" cy="9" r="3" fill="none" stroke="#D9D3C8" stroke-width="0.6"/>
        <text x="18" y="12" font-size="6" fill="#5C5650">Elendi</text>
      </g>
      <rect x="14" y="232" width="102" height="20" rx="5" fill="#3D5A47"/>
      <text x="65" y="245" font-size="7" font-weight="500" fill="#FAF8F4" text-anchor="middle">Onayla</text>
    </g>
    <text x="437" y="282" font-size="11" font-weight="600" fill="#1F1B16" text-anchor="middle">Action Sheet</text>
    <text x="437" y="298" font-size="10" font-weight="400" fill="#8A8278" text-anchor="middle">Aşama güncelle</text>

    <line x1="510" y1="130" x2="550" y2="130" stroke="#5C5650" stroke-width="1.2" marker-end="url(#arrowMini)"/>

    <g transform="translate(558, 0)">
      <rect width="130" height="260" rx="18" fill="#1A2622"/>
      <rect width="130" height="260" rx="18" fill="url(#darkDotsMini)"/>
      <rect width="130" height="260" rx="18" fill="url(#glowMini)"/>
      <text x="10" y="14" font-size="6" font-weight="600" fill="#FAF8F4">9:41</text>
      <text x="10" y="36" font-size="6" font-weight="500" fill="#8A8278" letter-spacing="1">BİR AN</text>
      <g transform="translate(108, 30)">
        <rect width="12" height="12" rx="6" fill="#FAF8F4" opacity="0.10"/>
        <line x1="4" y1="4" x2="8" y2="8" stroke="#FAF8F4" stroke-width="0.8" opacity="0.8"/>
        <line x1="8" y1="4" x2="4" y2="8" stroke="#FAF8F4" stroke-width="0.8" opacity="0.8"/>
      </g>
      <g transform="translate(65, 100)">
        <circle r="14" fill="#3D5A47" opacity="0.10"/>
        <path d="M 0 -10 L 1.5 0 L 0 10 L -1.5 0 Z" fill="#FAF8F4"/>
      </g>
      <text x="65" y="148" font-size="5" font-weight="500" fill="#B8C9BD" letter-spacing="1.2" text-anchor="middle">YENİ MÜLAKAT</text>
      <text x="65" y="172" font-size="11" font-weight="300" font-style="italic" fill="#FAF8F4" text-anchor="middle">İlk açılan kapı.</text>
      <text x="14" y="200" font-size="6" fill="#B8B0A4">Süreç tasarım rolünde</text>
      <text x="14" y="210" font-size="6" fill="#B8B0A4">3. mülakatın geldi.</text>
      <rect x="14" y="232" width="102" height="20" rx="5" fill="#FAF8F4"/>
      <text x="65" y="245" font-size="7" font-weight="500" fill="#1F1B16" text-anchor="middle">Yolculuğuma bak</text>
    </g>
    <text x="623" y="282" font-size="11" font-weight="600" fill="#1F1B16" text-anchor="middle">Milestone</text>
    <text x="623" y="298" font-size="10" font-weight="400" fill="#8A8278" text-anchor="middle">Anlamlı an</text>

    <path d="M 688 130 Q 760 130, 760 60 Q 760 -10, 688 -10 Q 30 -10, 30 60 Q 30 130, 65 130" fill="none" stroke="#3D5A47" stroke-width="1.5" stroke-dasharray="4 3" marker-end="url(#arrowLoop)"/>
    <text x="380" y="-30" font-size="11" font-weight="500" fill="#3D5A47" text-anchor="middle">Dashboard'a dönüş</text>
    <text x="380" y="-14" font-size="10" font-weight="400" fill="#5C5650" text-anchor="middle">Güncel veriyle yenilenmiş</text>
  </g>

  <text x="60" y="1110" font-size="11" font-weight="400" fill="#8A8278">Applyze v1.0 · 2 user flow · 11 ekran toplamı · Mayıs 2026</text>

</svg>
